<svg xmlns="http://www.w3.org/2000/svg" version="1.1" xmlns:xlink="http://www.w3.org/1999/xlink" xmlns:svgjs="http://svgjs.dev/svgjs" width="1500" height="939" viewBox="0 0 1500 939"><g transform="matrix(1,0,0,1,-0.9090909090909918,124.87227651515161)"><svg viewBox="0 0 396 248" data-background-color="#4a5d5e" preserveAspectRatio="xMidYMid meet" height="939" width="1500" xmlns="http://www.w3.org/2000/svg" xmlns:xlink="http://www.w3.org/1999/xlink"><g id="tight-bounds" transform="matrix(1,0,0,1,0.2400000000000091,0.4000000000000057)"><svg viewBox="0 0 395.52 247.2" height="247.2" width="395.52"><g><svg></svg></g><g><svg viewBox="0 0 395.52 247.2" height="247.2" width="395.52"><g transform="matrix(1,0,0,1,75.54432,94.89842005256003)"><svg viewBox="0 0 244.43135999999998 57.40315989487993" height="57.40315989487993" width="244.43135999999998"><g><svg viewBox="0 0 244.43135999999998 57.40315989487993" height="57.40315989487993" width="244.43135999999998"><g><svg viewBox="0 0 244.43135999999998 57.40315989487993" height="57.40315989487993" width="244.43135999999998"><g id="textblocktransform"><svg viewBox="0 0 244.43135999999998 57.40315989487993" height="57.40315989487993" width="244.43135999999998" id="textblock"><g><svg viewBox="0 0 244.43135999999998 57.40315989487993" height="57.40315989487993" width="244.43135999999998"><g transform="matrix(1,0,0,1,0,0)"><svg width="244.43135999999998" viewBox="0.98 -44.63 215.5 50.61692307692308" height="57.40315989487993" data-palette-color="#d2dbc8"><path d="M8.35-2.1L8.35-2.1Q8.59-3.27 9.59-4.03 10.6-4.79 11.89-5.42 13.18-6.05 14.6-6.62 16.02-7.18 17.21-7.81 18.41-8.45 19.19-9.3 19.97-10.16 19.97-11.38L19.97-11.38Q19.97-12.94 19.17-13.96 18.36-14.99 17.02-15.72 15.67-16.46 13.96-16.94 12.26-17.43 10.47-17.94 8.69-18.46 6.98-19.07 5.27-19.68 3.93-20.61 2.59-21.53 1.78-22.85 0.98-24.17 0.98-26.12L0.98-26.12Q0.98-27.73 1.64-29.17 2.29-30.62 3.39-31.91 4.49-33.2 5.93-34.28 7.37-35.35 8.96-36.08 10.55-36.82 12.16-37.23 13.77-37.65 15.14-37.65L15.14-37.65 15.67-37.65Q16.11-37.5 16.85-37.16 17.58-36.82 18.26-36.5 18.95-36.18 19.43-35.91 19.92-35.64 19.92-35.6L19.92-35.6 19.92-34.47Q18.99-34.38 17.53-34.11 16.06-33.84 14.45-33.4 12.84-32.96 11.18-32.3 9.52-31.64 8.2-30.76 6.88-29.88 6.05-28.74 5.22-27.59 5.22-26.12L5.22-26.12Q5.22-24.02 6.69-22.83 8.15-21.63 10.35-20.85 12.55-20.07 15.16-19.46 17.77-18.85 19.97-17.99 22.17-17.14 23.63-15.75 25.1-14.36 25.1-12.01L25.1-12.01Q25.1-10.74 24.34-9.35 23.58-7.96 22.34-6.62 21.09-5.27 19.53-4.05 17.97-2.83 16.33-1.93 14.7-1.03 13.13-0.46 11.57 0.1 10.35 0.1L10.35 0.1Q9.96 0.1 9.52 0 9.08-0.1 8.76-0.32 8.45-0.54 8.28-0.98 8.11-1.42 8.35-2.1ZM36.57-0.98L36.57-0.98Q35.79-0.29 34.93-1.61 34.08-2.93 33.2-5.59 32.32-8.25 31.47-11.96 30.61-15.67 29.83-19.82 29.05-23.97 28.34-28.25 27.63-32.52 27.1-36.28L27.1-36.28Q27.1-36.96 27.07-37.67 27.05-38.38 27.22-38.99 27.39-39.6 27.85-40.09 28.32-40.58 29.29-40.82L29.29-40.82Q29.39-40.87 29.71-40.75 30.03-40.63 30.37-40.45 30.71-40.28 30.98-40.09 31.25-39.89 31.35-39.75L31.35-39.75Q30.71-30.62 33.44-21.97L33.44-21.97Q33.59-22.12 34.23-22.97 34.86-23.83 35.84-24.98 36.81-26.12 38.06-27.44 39.3-28.76 40.67-29.88 42.04-31.01 43.41-31.76 44.77-32.52 46.04-32.52L46.04-32.52Q46.77-32.52 47.48-32.18 48.19-31.84 48.19-30.86L48.19-30.86Q48.19-30.76 48.14-30.59 48.09-30.42 48.09-30.32L48.09-30.32Q47.31-29.64 45.73-28.22 44.14-26.81 42.38-25.05 40.62-23.29 39.01-21.39 37.4-19.48 36.57-17.77L36.57-17.77Q36.42-17.48 36.47-17.26 36.52-17.04 36.57-16.75L36.57-16.75Q37.11-16.55 38.28-16.16 39.45-15.77 40.87-15.26 42.28-14.75 43.89-14.18 45.51-13.62 46.92-13.09 48.34-12.55 49.48-12.13 50.63-11.72 51.22-11.52L51.22-11.52Q51.9-11.23 52.34-11.13 52.78-11.04 53.02-10.86 53.27-10.69 53.37-10.4 53.46-10.11 53.46-9.52L53.46-9.52Q53.46-8.11 52.78-7.67 52.1-7.23 50.83-7.23L50.83-7.23Q47.07-7.47 43.45-8.81 39.84-10.16 36.13-12.06L36.13-12.06Q35.98-11.13 36.25-9.91 36.52-8.69 36.91-7.47 37.3-6.25 37.67-5.08 38.03-3.91 38.11-2.98 38.18-2.05 37.89-1.51 37.6-0.98 36.57-0.98ZM55.37-19.92L55.37-19.92Q55.37-20.21 55.39-20.97 55.41-21.73 55.41-22.56 55.41-23.39 55.44-24.1 55.46-24.8 55.46-25.1L55.46-25.1Q55.81-25.68 56.27-26.25 56.73-26.81 57.25-27.03 57.76-27.25 58.37-27.1 58.98-26.95 59.61-26.12L59.61-26.12 59.61-25.73 59.61-25.1Q59.57-24.85 59.42-23.95 59.27-23.05 59.08-21.97 58.88-20.9 58.71-20 58.54-19.09 58.54-18.85L58.54-18.85Q58.54-17.92 58.74-16.53 58.93-15.14 59.3-13.62 59.66-12.11 60.22-10.6 60.79-9.08 61.57-7.89 62.35-6.69 63.3-5.91 64.25-5.13 65.52-5.13L65.52-5.13Q67.08-5.13 68.28-5.96 69.48-6.79 70.36-8.11 71.24-9.42 71.8-11.08 72.36-12.74 72.7-14.43 73.04-16.11 73.19-17.68 73.33-19.24 73.33-20.41L73.33-20.41Q73.33-21.58 73.16-22.63 72.99-23.68 72.75-24.71 72.5-25.73 72.33-26.73 72.16-27.73 72.16-28.76L72.16-28.76Q72.16-29.69 72.82-30.08 73.48-30.47 74.31-30.47L74.31-30.47Q75.34-30.47 75.97-29.86 76.61-29.25 76.97-28.32 77.34-27.39 77.46-26.2 77.58-25 77.58-23.83 77.58-22.66 77.53-21.61 77.49-20.56 77.49-19.92L77.49-19.92Q77.49-18.26 77.24-16.16 77-14.06 76.39-11.84 75.78-9.62 74.87-7.47 73.97-5.32 72.68-3.64 71.38-1.95 69.7-0.93 68.01 0.1 65.91 0.1L65.91 0.1Q63.72 0.1 62.06-0.95 60.4-2 59.25-3.74 58.1-5.47 57.32-7.67 56.54-9.86 56.12-12.06 55.71-14.26 55.54-16.33 55.37-18.41 55.37-19.92ZM87.83-14.7L79.48-23.05Q79.44-23.1 79.44-23.19L79.44-23.19Q79.39-23.29 79.39-23.54L79.39-23.54Q79.39-24.46 80.17-24.83 80.95-25.2 81.68-25.2L81.68-25.2Q81.78-25.2 81.9-25.17 82.02-25.15 82.22-25.15L82.22-25.15Q82.37-25.1 82.66-25.1L82.66-25.1 89.49-19.34Q91.25-21.88 92.35-23.29 93.45-24.71 94.08-25.37 94.72-26.03 95.04-26.15 95.35-26.27 95.5-26.27L95.5-26.27Q95.84-26.27 96.26-26.27 96.67-26.27 97.11-26.2 97.55-26.12 97.87-25.88 98.19-25.63 98.33-25.1L98.33-25.1Q97.5-24.27 96.77-23.44 96.04-22.61 95.4-21.66 94.77-20.7 94.21-19.53 93.64-18.36 93.06-16.89L93.06-16.89Q93.99-16.21 95.38-14.97 96.77-13.72 98.21-12.23 99.65-10.74 101.02-9.2 102.39-7.67 103.29-6.3 104.19-4.93 104.46-3.96 104.73-2.98 104.09-2.69L104.09-2.69Q103.41-1.81 103.17-1.39 102.92-0.98 102.65-1.12 102.39-1.27 101.95-2.05 101.51-2.83 100.36-4.27 99.21-5.71 97.21-7.91 95.21-10.11 91.89-13.13L91.89-13.13 91.5-1.07Q91.5-1.03 91.3-0.88 91.11-0.73 90.89-0.56 90.67-0.39 90.42-0.24 90.18-0.1 89.98 0L89.98 0 89.4 0 88.91 0Q88.66-0.2 88.25-0.59 87.83-0.98 87.83-1.07L87.83-1.07 87.83-14.7ZM118.25-13.09L103.26-13.09Q103.26-14.99 103.95-17.63 104.63-20.26 105.87-23.12 107.12-25.98 108.78-28.78 110.44-31.59 112.39-33.84 114.35-36.08 116.52-37.48 118.69-38.87 120.84-38.87L120.84-38.87Q121.33-38.87 122.13-38.84 122.94-38.82 123.72-38.67 124.5-38.53 125.09-38.18 125.67-37.84 125.67-37.16L125.67-37.16Q125.67-37.11 125.58-36.87L125.58-36.87Q125.53-36.72 125.53-36.67L125.53-36.67Q125.43-36.47 125.16-36.16 124.89-35.84 124.57-35.5 124.26-35.16 123.92-34.86 123.57-34.57 123.48-34.47L123.48-34.47Q123.48-34.13 123.45-33.25 123.43-32.37 123.43-31.4 123.43-30.42 123.4-29.52 123.38-28.61 123.38-28.27L123.38-28.27Q123.38-26.71 123.35-25.27 123.33-23.83 123.43-22.41 123.53-21 123.74-19.6 123.96-18.21 124.45-16.75L124.45-16.75Q124.6-16.75 124.89-16.72 125.19-16.7 125.53-16.7 125.87-16.7 126.16-16.67 126.45-16.65 126.6-16.65L126.6-16.65Q127.24-16.65 127.87-16.67 128.51-16.7 129.07-16.89 129.63-17.09 130.07-17.53 130.51-17.97 130.8-18.85L130.8-18.85Q132.31-18.21 132.63-17.36 132.95-16.5 132.95-15.28L132.95-15.28Q132.95-13.82 132.31-13.06 131.68-12.3 130.63-11.96 129.58-11.62 128.24-11.6 126.89-11.57 125.53-11.52L125.53-11.52Q125.72-11.04 126.02-9.84 126.31-8.64 126.65-7.3 126.99-5.96 127.26-4.79 127.53-3.61 127.63-3.17L127.63-3.17Q127.63-3.08 127.68-2.64 127.72-2.2 127.72-1.95L127.72-1.95Q127.72-0.63 126.99-0.27 126.26 0.1 124.99 0.1L124.99 0.1Q124.84 0.1 124.23 0.05 123.62 0 123.48 0L123.48 0Q123.38-0.59 123.09-1.93 122.79-3.27 122.48-4.76 122.16-6.25 121.82-7.57 121.47-8.89 121.33-9.42L121.33-9.42Q121.18-9.81 120.89-10.45 120.6-11.08 120.18-11.67 119.77-12.26 119.25-12.67 118.74-13.09 118.25-13.09L118.25-13.09ZM118.25-32.42L118.25-32.42Q116.69-31.35 115-29.64 113.32-27.93 111.88-25.93 110.44-23.93 109.51-21.8 108.58-19.68 108.58-17.77L108.58-17.77 119.33-17.77Q119.33-19.29 119.18-21.51 119.03-23.73 118.86-25.9 118.69-28.08 118.47-29.88 118.25-31.69 118.25-32.42ZM136.02-27.64L136.02-27.64Q136.02-29.05 135.83-30.4 135.63-31.74 135.73-32.79 135.83-33.84 136.49-34.47 137.15-35.11 138.9-35.11L138.9-35.11Q139.44-33.98 139.95-31.69 140.47-29.39 140.95-26.42 141.44-23.44 141.88-19.95 142.32-16.46 142.69-12.94 143.05-9.42 143.32-6.03 143.59-2.64 143.74 0.15L143.74 0.15Q142.13 1.22 141.15 0.29 140.17-0.63 139.54-2.86 138.9-5.08 138.56-8.28 138.22-11.47 137.9-14.92 137.59-18.36 137.15-21.7 136.71-25.05 136.02-27.64ZM148.32-18.31L148.32-18.31Q148.32-18.6 148.35-19.26 148.37-19.92 148.4-20.65 148.42-21.39 148.45-22.07 148.47-22.75 148.47-23.05L148.47-23.05Q149.01-23.83 149.86-24.32 150.72-24.8 151.6-25.1L151.6-25.1Q151.74-22.46 152.43-19.48 153.11-16.5 153.89-13.5 154.67-10.5 155.28-7.57 155.89-4.64 155.89-2.1L155.89-2.1Q155.89 0.1 153.65 0.1L153.65 0.1Q152.28 0.1 151.35-1.03 150.42-2.15 149.86-3.88 149.3-5.62 148.96-7.74 148.62-9.86 148.5-11.91 148.37-13.96 148.35-15.67 148.32-17.38 148.32-18.31ZM149.01-36.62L149.01-36.62Q149.94-36.23 150.57-35.35 151.21-34.47 151.13-33.76 151.06-33.06 150.03-32.79 149.01-32.52 146.62-33.35L146.62-33.35Q146.62-34.67 147.13-35.64 147.64-36.62 149.01-36.62ZM177.67 4.54L177.67 4.54Q176.64 2.64 175.4-0.22 174.15-3.08 172.83-6.18 171.52-9.28 170.08-12.26 168.63-15.23 167.17-17.43L167.17-17.43Q166.58-17.87 165.56-17.97 164.53-18.07 163.41-18.04 162.29-18.02 161.19-18.09 160.09-18.16 159.28-18.6 158.48-19.04 158.09-19.97 157.7-20.9 157.94-22.66L157.94-22.66 166.14-22.66Q166.39-25.39 166.97-28.08 167.56-30.76 168.56-33.2 169.56-35.64 170.98-37.74 172.39-39.84 174.4-41.36 176.4-42.87 179.01-43.75 181.62-44.63 184.94-44.63L184.94-44.63Q186.12-44.63 187.29-44.07 188.46-43.51 189.39-42.58 190.31-41.65 190.88-40.48 191.44-39.31 191.44-38.13L191.44-38.13Q190.51-38.13 189.78-38.5 189.05-38.87 188.36-39.33 187.68-39.79 186.9-40.21 186.12-40.63 185.14-40.63L185.14-40.63Q182.21-40.63 179.69-39.45 177.18-38.28 175.3-36.33 173.42-34.38 172.35-31.79 171.27-29.2 171.27-26.32L171.27-26.32Q171.27-26.12 171.3-25.61 171.32-25.1 171.32-24.51 171.32-23.93 171.34-23.39 171.37-22.85 171.37-22.66L171.37-22.66Q173.18-22.07 175.42-21.78 177.67-21.48 179.94-21.41 182.21-21.34 184.33-21.44 186.46-21.53 188.12-21.68L188.12-21.68Q188.26-21.53 188.65-21.14 189.05-20.75 189.09-20.56L189.09-20.56Q189.09-20.41 189.14-20.36L189.14-20.36Q189.24-20.07 189.24-20.07L189.24-20.07Q189.24-19.04 188.17-18.46 187.09-17.87 185.43-17.6 183.77-17.33 181.75-17.24 179.72-17.14 177.84-17.07 175.96-16.99 174.47-16.87 172.98-16.75 172.39-16.41L172.39-16.41Q173.03-13.48 174.67-10.74 176.3-8.01 178.01-5.27 179.72-2.54 181.04 0.24 182.36 3.03 182.36 5.96L182.36 5.96Q182.16 5.96 181.45 5.98 180.74 6.01 179.96 5.91 179.18 5.81 178.47 5.49 177.77 5.18 177.67 4.54ZM192.27-13.57L192.27-13.57Q192.27-16.21 192.9-18.85 193.53-21.48 194.93-23.58 196.32-25.68 198.54-27 200.76-28.32 203.94-28.32L203.94-28.32Q205.74-28.32 207.11-27.66 208.48-27 209.4-25.93 210.33-24.85 210.8-23.41 211.26-21.97 211.26-20.41L211.26-20.41Q211.26-17.92 210.11-15.58 208.96-13.23 207.04-11.45 205.11-9.67 202.62-8.76 200.13-7.86 197.54-8.35L197.54-8.35Q197.59-6.93 198.49-6.08 199.39-5.22 200.66-4.79 201.93-4.35 203.3-4.22 204.67-4.1 205.74-4.1L205.74-4.1Q206.86-4.1 207.84-4.3 208.82-4.49 209.79-4.74 210.77-4.98 211.77-5.18 212.77-5.37 213.9-5.37L213.9-5.37Q214.34-5.37 214.77-5.32 215.21-5.27 215.61-5.1 216-4.93 216.24-4.57 216.48-4.2 216.48-3.66L216.48-3.66Q216.48-2.73 215.8-2.12 215.12-1.51 214.07-1.07 213.02-0.63 211.75-0.42 210.48-0.2 209.28-0.07 208.09 0.05 207.08 0.07 206.08 0.1 205.6 0.1L205.6 0.1Q202.47 0.1 199.98-0.9 197.49-1.9 195.78-3.69 194.07-5.47 193.17-7.98 192.27-10.5 192.27-13.57ZM197.44-16.75L197.44-16.75Q197.44-15.04 197.9-14.26 198.37-13.48 200.18-13.48L200.18-13.48Q201.44-13.48 202.67-13.94 203.89-14.4 204.89-15.23 205.89-16.06 206.47-17.19 207.06-18.31 207.06-19.63L207.06-19.63Q207.06-20.36 206.94-21.14 206.82-21.92 206.43-22.58 206.03-23.24 205.42-23.66 204.81-24.07 203.84-24.07L203.84-24.07Q202.37-24.07 201.18-23.41 199.98-22.75 199.15-21.7 198.32-20.65 197.88-19.36 197.44-18.07 197.44-16.75Z" opacity="1" transform="matrix(1,0,0,1,0,0)" fill="#d2dbc8" class="wordmark-text-0" data-fill-palette-color="primary" id="text-0"></path></svg></g></svg></g></svg></g></svg></g><g></g></svg></g></svg></g><g><path d="M83.081 81.347A122.216 122.216 0 0 1 312.439 81.347L307.263 81.347A117.039 117.039 0 0 0 88.257 81.347L83.081 81.347M83.081 165.853A122.216 122.216 0 0 0 312.439 165.853L307.263 165.853A117.039 117.039 0 0 1 88.257 165.853L83.081 165.853" fill="#d2dbc8" stroke="transparent" data-fill-palette-color="tertiary"></path></g></svg></g><defs></defs></svg><rect width="395.52" height="247.2" fill="none" stroke="none" visibility="hidden"></rect></g></svg></g></svg>